<svg width="123" height="19" viewBox="0 0 123 19" fill="none" xmlns="http://www.w3.org/2000/svg">
<path d="M0 18.6717V0.368286H4.25853C7.12484 0.368286 9.00841 1.84239 9.00841 5.4867C9.00841 7.24744 8.27136 8.59871 7.16578 9.13102C8.51704 9.74523 9.37695 11.1784 9.37695 13.3076C9.37695 16.952 7.53431 18.6717 4.5042 18.6717H0ZM3.89 7.9026C5.32315 7.9026 5.93736 7.20649 5.93736 5.52765C5.93736 3.80786 5.2822 3.07081 3.89 3.07081H3.07105V7.9026H3.89ZM3.03011 10.6461V15.9692H4.17663C5.60979 15.9692 6.3059 15.1912 6.3059 13.2667C6.3059 11.4241 5.60979 10.6461 4.25853 10.6461H3.03011Z" fill="#E30613"/>
<path d="M52.2492 3.07081H48.9324V18.6717H45.9023V0.368286H55.2793V18.6717H52.2492V3.07081Z" fill="#E30613"/>
<path d="M68.5459 5.8149C68.5868 2.62101 70.3066 0.0822754 73.5824 0.0822754C76.5306 0.0822754 78.4142 2.12963 78.4142 5.48732V18.6724C78.4142 18.6724 74.4833 18.6724 72.9273 18.6724C70.5933 18.6724 68.7506 17.5258 68.7506 13.9225V13.472C68.7506 10.0325 70.3885 8.067 73.9919 8.067H75.3841V5.8149C75.3841 3.80848 74.6061 2.7029 73.5005 2.74385C72.2721 2.7848 71.576 3.80848 71.576 5.8149H68.5459V5.8149ZM75.3431 16.2565V10.6876H73.869C72.2721 10.6876 71.576 11.6294 71.576 13.4311V13.8815C71.576 15.028 72.1083 16.2565 73.5005 16.2565C74.4832 16.2565 74.8108 16.2565 75.3431 16.2565Z" fill="#E30613"/>
<path d="M112.687 5.8149C112.727 2.62101 114.447 0.0822754 117.723 0.0822754C120.671 0.0822754 122.555 2.12963 122.555 5.48732V18.6724C122.555 18.6724 118.624 18.6724 117.068 18.6724C114.734 18.6724 112.891 17.5258 112.891 13.9225V13.472C112.891 10.0325 114.529 8.067 118.133 8.067H119.525V5.8149C119.525 3.80848 118.747 2.7029 117.641 2.74385C116.413 2.7848 115.717 3.80848 115.717 5.8149H112.687V5.8149ZM119.484 16.2565V10.6876H118.01C116.413 10.6876 115.717 11.6294 115.717 13.4311V13.8815C115.717 15.028 116.249 16.2565 117.641 16.2565C118.624 16.2565 118.951 16.2565 119.484 16.2565Z" fill="#E30613"/>
<path d="M87.2178 10.6461H83.8192V18.6717H80.7891V0.368286H83.8192V7.94354H87.2178V0.368286H90.2479V18.6717H87.2178V10.6461Z" fill="#E30613"/>
<path d="M102.737 0.368286H112.36V3.07081H109.043V18.6717H106.013V3.07081H102.696V0.368286H102.737Z" fill="#E30613"/>
<path d="M17.8528 13.3898H20.8829C20.7192 16.7884 19.1222 18.9586 16.0102 18.9586C12.5706 18.9586 10.9327 16.8294 11.0146 12.7756V6.224C11.0146 2.334 12.4478 0 15.8464 0C19.2451 0 20.9239 2.17022 20.9239 6.06021V10.6054H14.0447V12.0795C14.0447 14.8229 14.4133 16.1742 15.9693 16.2151C17.1158 16.297 17.6481 15.2324 17.8528 13.3898ZM13.9628 7.77999H17.8119V6.63347C17.8119 3.89 17.2796 2.78443 15.8464 2.78443C14.4133 2.78443 13.9628 3.89 13.9628 6.63347V7.77999V7.77999Z" fill="#E30613"/>
<path d="M99.3382 13.6764H102.368C102.205 17.075 100.608 18.9586 97.4956 18.9586C94.056 18.9586 92.4181 16.8294 92.5 12.7756V6.224C92.5 2.334 93.9331 0 97.3318 0C100.73 0 102.409 2.17022 102.409 6.06021V10.6054H95.5301V12.0795C95.5301 14.8229 95.8986 16.1742 97.4546 16.2151C98.6421 16.297 99.1744 15.519 99.3382 13.6764ZM95.4891 7.77999H99.3382V6.63347C99.3382 3.89 98.8059 2.78443 97.3727 2.78443C95.9396 2.78443 95.4891 3.89 95.4891 6.63347V7.77999V7.77999Z" fill="#E30613"/>
<path d="M63.8369 0.368286L67.8497 18.6717H64.7787L62.3218 6.10091L59.865 18.6717H56.7939L60.8068 0.368286H63.8369Z" fill="#E30613"/>
<path d="M28.7851 0.368286L32.798 18.6717H29.7269L27.2701 6.10091L24.8132 18.6717H21.7422L25.755 0.368286H28.7851Z" fill="#E30613"/>
<path d="M43.7725 13.2264C43.7725 17.1164 41.8071 18.9999 38.8179 18.9999C35.8288 18.9999 33.8633 17.1164 33.8633 13.2264V5.85585C33.8633 1.96586 35.8288 0.0822754 38.8179 0.0822754C41.8071 0.0822754 43.7725 1.96586 43.7725 5.85585V13.2264ZM40.7424 6.22438C40.7424 3.80848 40.1282 2.7848 38.8179 2.7848C37.5076 2.7848 36.8934 3.84943 36.8934 6.22438V12.8169C36.8934 15.2328 37.5076 16.2565 38.8179 16.2565C40.1282 16.2565 40.7424 15.1918 40.7424 12.8169V6.22438Z" fill="#E30613"/>
</svg>
