<svg width="23" height="16" viewBox="0 0 23 16" fill="none" xmlns="http://www.w3.org/2000/svg">
<path d="M19.6618 3.28447C19.5407 3.2963 19.4274 3.35438 19.3424 3.44828L12.2667 10.1638C11.8198 10.5883 11.1632 10.5882 10.7174 10.1638L3.65764 3.44828C3.60738 3.39792 3.54825 3.35901 3.48377 3.33383C3.41929 3.30866 3.35077 3.29774 3.2823 3.30174C3.18026 3.3087 3.0825 3.34853 3.00165 3.41608C2.9208 3.48364 2.86057 3.57583 2.82876 3.68071C2.79694 3.7856 2.79499 3.89837 2.82317 4.00446C2.85134 4.11056 2.90834 4.2051 2.98681 4.27586L6.97186 8.06897L2.9948 11.7155C2.93402 11.7582 2.88234 11.8144 2.8432 11.8803C2.80407 11.9461 2.77836 12.0203 2.7678 12.0977C2.75724 12.1751 2.76207 12.2541 2.78195 12.3294C2.80184 12.4047 2.83633 12.4745 2.88314 12.5343C2.92996 12.5941 2.98802 12.6424 3.05346 12.6761C3.11891 12.7098 3.19025 12.7281 3.26275 12.7297C3.33524 12.7314 3.40723 12.7164 3.47394 12.6857C3.54064 12.655 3.60054 12.6093 3.64964 12.5517L7.74653 8.81034L10.0385 10.9914C10.8643 11.7775 12.1115 11.7759 12.9375 10.9914L15.2455 8.80171L19.3504 12.5517C19.3995 12.6093 19.4594 12.655 19.5261 12.6857C19.5928 12.7164 19.6648 12.7314 19.7373 12.7297C19.8097 12.7281 19.8811 12.7098 19.9465 12.6761C20.012 12.6424 20.07 12.5941 20.1169 12.5343C20.1637 12.4745 20.1982 12.4047 20.218 12.3294C20.2379 12.2541 20.2428 12.1751 20.2322 12.0977C20.2216 12.0203 20.1959 11.9461 20.1568 11.8803C20.1177 11.8144 20.066 11.7582 20.0052 11.7155L16.0201 8.06897L20.0132 4.27586C20.1022 4.20395 20.1671 4.10266 20.198 3.98736C20.2289 3.87205 20.2241 3.74902 20.1843 3.63692C20.1446 3.52482 20.0721 3.42976 19.9778 3.36616C19.8835 3.30256 19.7726 3.27387 19.6618 3.28447Z" fill="#E30613"/>
<path fill-rule="evenodd" clip-rule="evenodd" d="M2.04444 0C0.920664 0 0 0.993821 0 2.2069V13.7931C0 15.0062 0.920664 16 2.04444 16H20.9556C22.0793 16 23 15.0062 23 13.7931V2.2069C23 0.993821 22.0793 0 20.9556 0H2.04444ZM20.9556 1.10345H2.04444C1.46929 1.10345 1.02222 1.58604 1.02222 2.2069V13.7931C1.02222 14.414 1.46929 14.8966 2.04444 14.8966H20.9556C21.5307 14.8966 21.9778 14.414 21.9778 13.7931V2.2069C21.9778 1.58604 21.5307 1.10345 20.9556 1.10345Z" fill="#E30613"/>
</svg>
