<svg width="424" height="372" viewBox="0 0 424 372" fill="none" xmlns="http://www.w3.org/2000/svg">
<path d="M230.3 82.1L228.98 74.75L225.68 55.82C223.25 39.86 216.66 29.87 211.56 24.32L211.46 24.22C196.86 5.13998 167.56 -3.40002 138.48 2.96998C116.95 7.68998 98.7001 19.63 88.4201 35.74C82.7201 44.64 79.9701 53.98 80.2001 63.46V63.76C80.2001 64.2 80.1201 74.71 81.8701 82.56C82.0238 83.2365 82.1905 83.9099 82.3701 84.58L76.8001 91.58L71.1201 88.53C69.4201 87.63 67.3901 87.83 65.8401 88.98L34.8801 111.48C34.726 111.594 34.5851 111.725 34.4601 111.87C33.7901 112.51 33.3601 113.35 33.1601 114.37L30.3001 130.65V130.67C30.2201 131.07 30.1601 131.45 30.1401 131.81L28.5701 156.28C28.4701 157.76 28.6501 159.13 29.1101 160.38C29.1301 160.48 29.1701 160.6 29.2301 160.74L29.4301 161.16L29.4701 161.2C30.2201 162.73 31.4201 163.96 33.0401 164.87L81.5201 191.2C81.8201 191.37 82.1501 191.5 82.5201 191.6L96.6201 195.36L96.9201 195.46C97.0201 195.49 97.1201 195.51 97.2201 195.52L97.3401 195.55C97.7713 195.681 98.2194 195.749 98.6701 195.75C99.6821 195.747 100.665 195.413 101.47 194.8L130.41 173.26L133.83 175.48C134.35 175.92 135.88 177.06 137.97 177.06H138.11L138.18 177.07L138.46 177.05C138.623 177.039 138.784 177.009 138.94 176.96C140.47 176.71 141.84 175.88 143.07 174.49L160.71 153.74C183.96 150.74 207.27 137.56 220.29 120.01C229.16 107.98 232.64 94.88 230.34 82.11L230.3 82.1ZM136.37 172.43L131.97 169.53L136.31 166.3C136.48 166.18 136.71 166.14 136.84 166.2C136.88 166.22 136.98 166.27 137 166.52L137.55 173C136.87 172.86 136.37 172.42 136.37 172.42V172.43ZM138.54 172.9L137.99 166.45C137.96 165.92 137.69 165.5 137.26 165.3C136.79 165.08 136.19 165.16 135.72 165.5L131.08 168.95L130.18 168.35L99.9201 190.87C100.05 190.32 100.1 189.87 100.12 189.75L103.42 151.35C103.47 150.35 103.07 149.43 102.48 148.62L102.68 148.52L102.71 148.49C102.72 148.49 102.73 148.49 102.73 148.48L132.05 126.7C132.1 126.66 133.21 125.72 134.07 126.64C135.21 127.9 138.64 132.99 138.69 133.07C138.74 133.14 139.21 133.71 139.95 133.71C140.49 133.71 140.98 133.41 141.43 132.84C142.43 131.54 151.51 121.72 152.25 120.94L158.55 149.97L157.81 150.84L139.97 171.84C139.49 172.4 139.01 172.74 138.53 172.91L138.54 172.9ZM32.5401 156.53L34.1201 132.05C34.1339 131.824 34.1674 131.6 34.2201 131.38L34.7001 128.68C34.931 128.478 35.1823 128.3 35.4501 128.15C36.1001 127.79 36.8101 127.61 37.5301 127.61C38.258 127.611 38.9737 127.797 39.6101 128.15L39.7801 128.25L37.9101 153.27C37.9001 153.3 37.5901 154.82 38.1101 156.47L32.7601 158.7C32.5601 158.06 32.4901 157.34 32.5401 156.54V156.53ZM38.5401 114.05L74.8901 133.77C74.9301 133.8 74.9701 133.83 75.0201 133.84L97.7601 146.17C97.7901 146.18 99.5901 147.05 100.96 148.37L89.0001 155.04C88.4201 154.02 87.5501 153.16 86.4301 152.54L63.3301 139.94C63.3101 139.92 63.2801 139.91 63.2601 139.9L40.6601 127.56C40.6037 127.509 40.5346 127.475 40.4601 127.46L40.1101 127.26C39.1949 126.756 38.1513 126.534 37.1101 126.62L37.2701 114.72L38.3301 113.95C38.4001 113.98 38.4801 114.01 38.5601 114.05H38.5401ZM85.3201 87.25C87.0501 92.05 89.6501 96.51 93.0901 100.55C91.8701 100.22 90.8901 100.63 90.3101 101.07L79.1101 95.07L85.3301 87.25H85.3201ZM91.5901 101.51C92.0701 101.36 92.7501 101.34 93.5901 101.83L102.19 106.93L74.9501 127.15C74.7901 126.99 74.6201 126.87 74.4701 126.77L66.2001 122C66.0701 121.93 65.9501 121.9 65.8401 121.84L91.6001 101.51H91.5901ZM103.75 108.18C103.98 108.6 104.25 109.16 104.51 109.68C104.61 109.88 104.71 110.06 104.79 110.24L75.6601 132.39L75.5601 128.72C75.5501 128.46 75.5101 128.22 75.4601 128.04L103.1 107.52C103.4 107.72 103.64 107.92 103.76 108.18H103.75ZM134.21 125.53C134.19 125.52 134.18 125.5 134.16 125.49L119.64 117.57C127.16 120.01 135.28 121.27 143.67 121.27C146.083 121.269 148.495 121.169 150.9 120.97L140.66 132.27C140.49 132.49 140.24 132.74 139.99 132.75C139.74 132.75 139.53 132.52 139.52 132.52C139.36 132.28 136.02 127.32 134.82 126.02C134.645 125.826 134.435 125.666 134.2 125.55L134.21 125.53ZM132.14 125.52C131.889 125.633 131.654 125.778 131.44 125.95L102.18 147.68L101.85 147.88C100.35 146.32 98.3301 145.34 98.2101 145.28L76.1101 133.28L105.46 110.96L132.13 125.51L132.14 125.52ZM102.44 151.32C102.26 154.5 99.1701 189.32 99.1401 189.66C99.0628 190.364 98.8878 191.054 98.6201 191.71C98.5421 191.706 98.4649 191.692 98.3901 191.67L98.0401 191.57L86.4101 188.47C86.6714 188.116 86.8337 187.698 86.8801 187.26L87.4201 181.98C87.4301 181.93 87.4501 181.88 87.4501 181.83C87.4501 181.8 87.4401 181.77 87.4401 181.75L89.7801 159.03C89.8993 157.98 89.7621 156.916 89.3801 155.93L101.6 149.13C102.12 149.8 102.46 150.53 102.43 151.33L102.44 151.32ZM86.1701 182.18C85.7001 182.43 84.8701 182.34 84.5301 182.16L41.1301 158.68C40.2601 158.2 39.7101 157.58 39.3601 156.91L63.0301 140.91L85.9301 153.41C87.9801 154.54 89.0501 156.61 88.8101 158.94L86.4501 181.82C86.4388 181.898 86.4082 181.972 86.361 182.034C86.3138 182.097 86.2516 182.147 86.1801 182.18H86.1701ZM38.8901 153.38L40.7401 128.74L62.0401 140.37L38.9801 155.97C38.6201 154.67 38.8601 153.52 38.8801 153.39L38.8901 153.38ZM64.3201 123.28C64.3901 123 64.5601 122.78 64.7701 122.68C65.0701 122.55 65.4401 122.7 65.6901 122.84L73.9501 127.64C74.2501 127.84 74.5201 128.04 74.5501 128.74C74.5801 129.42 74.6301 131.34 74.6501 132.49L63.5001 126.44L64.3201 123.28V123.28ZM36.0801 126.8C35.7001 126.9 35.3201 127.05 34.9801 127.25C34.9701 127.25 34.9701 127.26 34.9601 127.26L36.1801 120.29L36.0801 126.79V126.8ZM38.4801 157.37C38.9694 158.294 39.7209 159.052 40.6401 159.55L84.0601 183.05C84.4101 183.23 84.9001 183.35 85.4101 183.35C85.7101 183.35 86.0101 183.29 86.3101 183.2L85.9101 187.18C85.8701 187.55 85.6601 187.91 85.3501 188.2L84.0101 187.84L83.6801 187.74C83.5301 187.71 83.4801 187.68 83.4401 187.66L34.9701 161.34C34.1701 160.89 33.5701 160.31 33.1701 159.6L38.4901 157.38L38.4801 157.37ZM159.54 149.81L153.17 120.45C153.161 120.421 153.147 120.394 153.13 120.37C153.14 120.33 153.15 120.29 153.14 120.25C153.11 119.98 152.87 119.77 152.59 119.8C138.86 121.23 125.51 119.37 113.99 114.4C113.91 114.37 113.83 114.36 113.76 114.37L105.78 110.02L104.61 107.74C104.38 107.28 104.01 106.94 103.54 106.64C103.53 106.62 103.52 106.59 103.51 106.57C103.41 106.44 103.27 106.37 103.11 106.37L102.88 106.23L102.78 106.16L95.6201 101.91C91.2201 97.28 88.0201 92.04 86.0401 86.31L86.7601 85.41L86.4601 84.41C86.1886 83.4985 85.9485 82.5779 85.7401 81.65C85.4499 80.3272 85.2163 78.9927 85.0401 77.65C92.9701 97.82 116.21 110.65 143.11 110.65C149.23 110.65 155.54 109.99 161.91 108.59C182.91 103.99 200.71 92.37 210.71 76.72C217.83 65.58 220.23 53.58 217.67 42.02C217.59 41.65 217.47 41.29 217.39 40.92C219.23 45.22 220.79 50.35 221.71 56.42C222.25 59.99 222.91 63.57 225.04 75.46L226.36 82.81C228.46 94.47 225.23 106.51 217 117.61C204.5 134.46 181.96 147.11 159.55 149.81H159.54ZM216.69 42.21C219.19 53.51 216.83 65.26 209.86 76.17C200 91.6 182.44 103.05 161.69 107.6C125.85 115.45 91.6901 99.9 84.5301 72.82C84.302 69.852 84.1819 66.8767 84.1701 63.9L84.1901 63.77V63.61C83.9101 54.84 86.4701 46.17 91.7901 37.85C101.49 22.63 118.83 11.33 139.34 6.82998C167.02 0.769979 194.78 8.77998 208.42 26.78L208.59 27.01L208.74 27.11C210.44 28.99 212.32 31.41 214.14 34.43C215.24 36.91 216.11 39.5 216.71 42.2L216.69 42.21ZM89.5701 101.81L64.0901 121.91C64.0801 121.92 64.0701 121.94 64.0601 121.95C63.7201 122.2 63.4601 122.58 63.3401 123.03L62.5901 125.96L39.1901 113.26L68.1701 92.16C68.4101 91.98 68.7901 91.81 69.2001 92.02L77.8001 96.64L78.4301 95.84L89.5501 101.79L89.5701 101.81ZM145.97 67.25C148.11 67.25 150.31 67.02 152.52 66.53C165.62 63.63 174.46 52.87 172.2 42.57C171.1 37.54 167.55 33.37 162.25 30.83C156.99 28.31 150.59 27.7 144.25 29.1C131.15 31.98 122.31 42.73 124.57 53.06C126.47 61.63 135.47 67.26 145.97 67.26V67.25ZM144.47 30.08C146.63 29.6 148.79 29.36 150.91 29.36C154.81 29.36 158.54 30.16 161.81 31.73C166.83 34.13 170.17 38.06 171.21 42.78C173.35 52.55 164.86 62.76 152.29 65.55C139.69 68.31 127.69 62.61 125.53 52.85C123.39 43.07 131.88 32.85 144.45 30.09L144.47 30.08ZM128.27 68.55C133.27 71.75 139.44 73.41 145.91 73.41C148.78 73.4082 151.64 73.0896 154.44 72.46C171.49 68.69 182.91 54.56 179.91 40.96C178.68 35.32 175.19 30.53 169.83 27.11C162.63 22.51 153.09 21.09 143.65 23.21C126.63 26.97 115.2 41.09 118.17 54.67C119.42 60.32 122.91 65.12 128.27 68.55ZM143.87 24.19C146.601 23.578 149.391 23.2662 152.19 23.26C158.47 23.26 164.44 24.86 169.29 27.96C174.42 31.24 177.76 35.81 178.93 41.18C181.81 54.24 170.73 67.83 154.23 71.48C145.05 73.53 135.78 72.15 128.81 67.7C123.67 64.42 120.33 59.84 119.16 54.45C116.31 41.4 127.4 27.82 143.88 24.18L143.87 24.19ZM188.79 40.82L188.69 40.28L188.33 38.85L188.26 38.53C188.25 38.48 188.22 38.43 188.19 38.38C186.27 31.9 181.99 26.38 175.65 22.34C166.35 16.4 154.01 14.56 141.79 17.28C120.32 22.06 105.75 39.55 108.62 56.7C108.62 56.73 108.61 56.76 108.62 56.8L110.02 64.5C111.58 71.62 116 77.68 122.82 82.03C129.32 86.18 137.32 88.33 145.77 88.33C149.524 88.3274 153.266 87.915 156.93 87.1C179.09 82.2 194 64.12 190.17 46.78L188.79 40.83V40.82ZM142 18.25C145.556 17.4598 149.187 17.0574 152.83 17.05C161.01 17.05 168.78 19.15 175.1 23.18C181.36 27.18 185.57 32.66 187.35 39.08L187.8 41.03C191.12 57.91 176.78 75.31 155.53 80.01C143.57 82.67 131.5 80.88 122.43 75.08C115.73 70.8 111.37 64.81 109.83 57.78C106.09 40.78 120.53 23.04 142 18.26V18.25ZM156.7 86.11C144.6 88.78 132.45 86.98 123.35 81.17C116.77 76.97 112.5 71.12 111 64.29L110.95 64.01C113.25 68.73 116.95 72.79 121.9 75.95C128.38 80.09 136.34 82.25 144.72 82.25C148.434 82.2474 152.137 81.8348 155.76 81.02C174.83 76.8 188.46 62.52 189.26 47.36C192.69 64.03 178.18 81.36 156.71 86.12L156.7 86.11ZM124.2 155L122.6 150.1C122.59 150.07 122.57 150.06 122.56 150.03C122.55 150.01 122.54 149.98 122.53 149.96C122.53 149.95 122.52 149.95 122.51 149.95C122.488 149.922 122.461 149.898 122.43 149.88C122.41 149.86 122.39 149.84 122.36 149.83C122.33 149.81 122.3 149.81 122.26 149.79C122.23 149.78 122.21 149.77 122.18 149.77H122.08C122.05 149.77 122.02 149.77 121.98 149.78C121.93 149.79 121.91 149.81 121.88 149.82C121.85 149.83 121.83 149.84 121.81 149.85L110.51 158.07L110.38 158.2C110.37 158.22 110.35 158.24 110.34 158.27C110.32 158.31 110.31 158.37 110.3 158.4C110.3 158.42 110.29 158.44 110.29 158.45L109.91 170.19C109.91 170.2 109.91 170.21 109.92 170.22V170.25C109.92 170.28 109.93 170.3 109.94 170.32C109.95 170.35 109.95 170.38 109.96 170.4C109.97 170.43 109.99 170.46 110.02 170.5C110.04 170.52 110.05 170.54 110.07 170.56C110.1 170.59 110.13 170.61 110.17 170.62C110.19 170.63 110.21 170.65 110.23 170.66C110.27 170.68 110.31 170.68 110.36 170.69C110.38 170.69 110.39 170.7 110.41 170.7H110.48L119.54 169.83C119.56 169.83 119.57 169.82 119.59 169.81C119.64 169.8 119.69 169.79 119.73 169.76C119.74 169.75 119.75 169.75 119.76 169.75L124 167C124.14 166.9 124.23 166.75 124.23 166.58L124.25 155.11C124.248 155.069 124.242 155.029 124.23 154.99C124.2 155.02 124.21 155 124.21 154.99L124.2 155ZM111.3 158.96L119.17 158.59L119 168.89L110.95 169.66L111.3 158.96ZM119.5 157.56L112.45 157.89L121.85 151.05L123.13 154.95L119.5 157.55V157.56ZM120 168.41L120.16 158.31L123.21 156.11V166.35L120.01 168.42L120 168.41ZM399.36 183.36C401.68 183.36 403.86 182.88 405.58 181.96C407.55 180.92 408.68 179.46 408.75 177.81C408.82 176.16 407.83 174.59 405.95 173.38C404.15 172.23 401.75 171.53 399.15 171.42C393.63 171.22 389.21 173.66 389.07 176.97C389.02 178.07 389.47 179.17 390.37 180.17C392.09 182.03 395.17 183.22 398.65 183.34L399.35 183.36H399.36ZM390.06 177.02C390.16 174.42 393.91 172.42 398.51 172.42C398.707 172.418 398.904 172.422 399.1 172.43C401.52 172.53 403.75 173.17 405.4 174.23C406.97 175.23 407.8 176.5 407.74 177.78C407.69 179.05 406.74 180.22 405.11 181.08C403.38 181.98 401.11 182.44 398.68 182.34C395.52 182.22 392.61 181.14 391.08 179.49C390.38 178.72 390.01 177.86 390.05 177.02H390.06ZM253.76 115.92C253.63 119.02 257.73 121.62 263.1 121.86C263.323 121.868 263.547 121.872 263.77 121.87C268.8 121.87 272.75 119.67 272.87 116.71C273 113.61 268.91 111.01 263.57 110.77C258.21 110.57 253.9 112.83 253.77 115.92H253.76ZM262.89 111.76C263.1 111.758 263.31 111.762 263.52 111.77C268.15 111.97 271.97 114.22 271.87 116.67C271.77 119.17 267.84 121.07 263.13 120.87C258.48 120.67 254.65 118.42 254.75 115.97C254.85 113.59 258.45 111.77 262.89 111.77V111.76ZM377.96 171.16C376.72 170.39 374.52 170.24 372.64 171.71L363.07 179.14C362.91 179.26 362.84 179.47 362.89 179.67C362.914 179.766 362.968 179.852 363.043 179.917C363.118 179.981 363.212 180.021 363.31 180.03L372.33 181.43C372.866 181.54 373.412 181.597 373.96 181.6C375.36 181.6 376.29 181.18 376.86 180.77C377.62 180.22 378.13 179.42 378.24 178.55C378.38 177.49 378.56 176.72 378.84 175.43L379.19 173.83C379.39 172.77 378.94 171.77 377.95 171.17L377.96 171.16ZM378.22 173.62L377.87 175.22L377.27 178.42C377.19 179.02 376.83 179.58 376.29 179.96C375.69 180.4 374.53 180.84 372.53 180.46L364.63 179.22L373.26 172.52C374.7 171.39 376.46 171.42 377.44 172.02C377.82 172.24 378.41 172.76 378.24 173.62H378.22ZM397.84 163.94C398.01 163.38 397.99 162.48 396.96 161.41L392.38 156.55C392.2 156.35 391.91 156.35 391.7 156.5L382.43 163.84C381.29 164.74 380.91 165.9 381.43 166.94C381.86 167.81 382.97 168.52 384.43 168.52C384.83 168.52 385.23 168.47 385.67 168.36L395.57 165.8C396.47 165.57 397.55 164.97 397.85 163.95L397.84 163.94ZM385.41 167.37C383.89 167.77 382.69 167.2 382.33 166.47C382.03 165.89 382.31 165.21 383.06 164.61L391.96 157.55L396.23 162.08C396.61 162.48 397.03 163.08 396.87 163.64C396.72 164.14 396.12 164.59 395.33 164.79L385.4 167.36L385.41 167.37ZM262.91 129.75C262.67 130.47 262.87 131.28 263.45 131.95C264.43 133.15 268.25 136.87 268.41 137.03C268.51 137.13 268.63 137.17 268.76 137.17C268.864 137.17 268.965 137.138 269.05 137.08L278.77 130.13C279.73 129.43 280.11 128.19 279.67 127.16C279.3 126.31 278.27 125.53 276.47 125.9L264.77 128.27C263.85 128.47 263.17 129.01 262.93 129.75H262.91ZM276.66 126.88C276.884 126.833 277.112 126.81 277.34 126.81C278.04 126.81 278.52 127.07 278.74 127.56C279 128.16 278.76 128.9 278.18 129.31L268.8 136.01L264.2 131.29C263.85 130.89 263.72 130.43 263.84 130.05C263.97 129.65 264.38 129.35 264.94 129.25L276.66 126.89V126.88ZM283.44 123.33C283.97 123.66 284.59 123.83 285.24 123.83C286.22 123.83 287.28 123.47 288.24 122.77L297.99 115.65C298.15 115.53 298.23 115.33 298.19 115.15C298.167 115.057 298.118 114.972 298.049 114.905C297.98 114.838 297.894 114.791 297.8 114.77L287.46 112.69C286.1 112.42 285.09 112.53 284.36 113.03C283.71 113.47 283.3 114.23 283.11 115.31V115.41L282.23 120.21C281.99 121.53 282.45 122.71 283.46 123.34L283.44 123.33ZM283.2 120.38L284.1 115.48C284.25 114.66 284.5 114.14 284.93 113.85C285.23 113.65 285.63 113.55 286.15 113.55C286.52 113.554 286.888 113.594 287.25 113.67L296.48 115.53L287.65 121.97C286.2 123.02 284.75 122.99 283.95 122.5C283.28 122.08 283.01 121.33 283.18 120.4L283.2 120.38ZM321.23 113.18C324.7 114.06 328.09 114.5 331.35 114.5C336.28 114.5 340.89 113.5 344.98 111.5C345.15 111.42 345.26 111.25 345.26 111.06L345.7 88.54C345.7 88.37 345.62 88.21 345.48 88.11C345.34 88.01 345.16 88.01 345 88.07C337.5 91.34 329.92 91.82 322.47 89.51C322.32 89.46 322.17 89.49 322.03 89.58C321.966 89.6227 321.913 89.6807 321.876 89.7487C321.84 89.8167 321.82 89.8927 321.82 89.97L320.86 112.67C320.85 112.91 321 113.12 321.23 113.17V113.18ZM322.79 90.65C330.04 92.75 337.39 92.3 344.69 89.29L344.27 110.73C337.84 113.78 330.11 114.33 321.87 112.31L322.79 90.65V90.65ZM322.26 56C322.26 56.2 322.36 56.38 322.56 56.46L326.68 58.4C326.75 58.43 326.82 58.45 326.88 58.45C326.96 58.45 327.04 58.43 327.11 58.39C328.81 57.51 330.91 57.39 333.05 58.04C333.2 58.09 333.35 58.06 333.49 57.97L336.65 55.71C336.729 55.6553 336.789 55.5788 336.825 55.4899C336.861 55.4011 336.869 55.3037 336.85 55.21C336.831 55.117 336.786 55.0312 336.721 54.9623C336.655 54.8934 336.572 54.8441 336.48 54.82C331.41 53.52 326.86 53.75 322.56 55.55C322.471 55.5861 322.394 55.6484 322.341 55.7287C322.287 55.809 322.259 55.9035 322.26 56ZM335.16 55.53L333.1 57C330.9 56.38 328.7 56.5 326.87 57.38L324.03 56.04C327.5 54.82 331.16 54.64 335.17 55.52L335.16 55.53ZM340.18 67.56L335.66 65.61C335.591 65.5811 335.517 65.5679 335.443 65.5713C335.368 65.5748 335.296 65.5948 335.23 65.63C333.63 66.46 331.73 66.58 329.23 66.03C329.162 66.0151 329.091 66.0145 329.022 66.0282C328.953 66.042 328.888 66.0698 328.83 66.11L325.6 68.45C325.44 68.55 325.37 68.75 325.4 68.95C325.43 69.15 325.57 69.29 325.75 69.35C327.6 69.88 329.52 70.15 331.5 70.15C334.33 70.15 337.26 69.61 340.17 68.53C340.264 68.4945 340.346 68.4319 340.405 68.35C340.464 68.2681 340.497 68.1707 340.5 68.07C340.49 67.87 340.37 67.67 340.2 67.6L340.18 67.56ZM327.03 68.62L329.23 67.04C331.76 67.58 333.76 67.44 335.49 66.62L338.61 67.97C334.65 69.23 330.69 69.45 327.04 68.62H327.03ZM323.3 60.8C323.35 60.57 323.23 60.33 323.02 60.23L318.78 58.33C318.56 58.23 318.3 58.31 318.16 58.51C316.08 61.64 316.72 64.86 319.91 67.36C319.998 67.4299 320.107 67.4686 320.22 67.47C320.333 67.4686 320.442 67.4299 320.53 67.36L324.05 64.53C324.154 64.4348 324.224 64.3085 324.25 64.17C324.27 64.03 324.2 63.89 324.1 63.79C323.33 63.03 323.05 61.95 323.3 60.79V60.8ZM320.2 66.32C317.82 64.3 317.3 61.87 318.75 59.42L322.25 60.98C322.09 62.12 322.35 63.21 323.01 64.06L320.21 66.32H320.2ZM338.9 62.88C338.83 63.12 338.94 63.38 339.17 63.48L343.47 65.51C343.54 65.54 343.61 65.56 343.67 65.56C343.81 65.56 343.95 65.5 344.05 65.39C345.01 64.27 345.43 62.92 345.27 61.49C345.07 59.79 344.07 58.12 342.47 56.95C342.3 56.82 342.07 56.82 341.89 56.94L338.29 59.36C338.23 59.4008 338.179 59.4541 338.141 59.5162C338.103 59.5782 338.079 59.6478 338.07 59.72C338.061 59.7921 338.068 59.8655 338.09 59.9346C338.113 60.0038 338.15 60.0671 338.2 60.12C338.543 60.4833 338.785 60.9304 338.901 61.4166C339.017 61.9028 339.003 62.4109 338.86 62.89L338.9 62.88ZM342.18 57.95C343.38 58.95 344.15 60.25 344.3 61.59C344.4 62.62 344.15 63.59 343.54 64.43L339.96 62.73C340.16 61.59 339.83 60.57 339.33 59.85L342.18 57.95V57.95ZM422.96 177.45C422.83 173.67 420.63 170.73 416.91 166.99L395.88 145.86C395.693 145.675 395.488 145.508 395.27 145.36C395.07 145.212 394.856 145.085 394.63 144.98C394.361 144.852 394.08 144.751 393.79 144.68C393.52 144.617 393.246 144.573 392.97 144.55C392.89 144.55 392.79 144.54 392.71 144.54C392.506 144.539 392.302 144.552 392.1 144.58C391.811 144.614 391.526 144.677 391.25 144.77C391 144.87 390.79 144.95 390.63 145.04C390.376 145.166 390.135 145.317 389.91 145.49L388.07 146.94C387.207 146.68 386.311 146.548 385.41 146.55C383.29 146.55 381.48 147.27 380.11 148.08L371.15 143.95L370.81 143.79C370.596 143.671 370.376 143.564 370.15 143.47C370.079 143.437 370.006 143.411 369.93 143.39L358.87 138.29C360.75 135.73 361.87 132.89 362.15 129.92C362.59 125.42 361.11 121.05 357.87 117.18C357.85 117.12 357.84 117.06 357.82 117C357.92 116.33 357.98 115.67 357.96 115C357.92 112.98 357.3 111.03 356.14 109.2L356.27 102.5C356.27 102.3 356.26 102.1 356.24 101.94C356.2 100.24 355.79 98.57 355.04 96.99L355.19 85.33C357.44 81.67 357.44 76.68 356.62 73.89C356.52 73.41 356.38 72.93 356.22 72.47C357.02 70.87 357.46 69.2 357.49 67.49C357.49 67.35 357.49 67.21 357.48 67.07C357.47 66.92 357.46 66.77 357.43 66.64C356.69 62.3 354.56 57.64 352.13 55.06C352.039 54.9672 351.946 54.8772 351.85 54.79C347.65 50.19 339.85 47.19 331.35 46.93L330.22 46.91C322.22 46.91 314.94 49.31 310.72 53.34C310.058 53.9705 309.459 54.6638 308.93 55.41C307.15 57.71 306.33 60.19 305.59 62.37L304.89 64.39C304.78 64.6708 304.699 64.9624 304.65 65.26C304.608 65.4742 304.584 65.6917 304.58 65.91V66.04C304.56 67.87 305 69.7 305.88 71.42C305.393 72.4468 305.069 73.5433 304.92 74.67C304.15 78.02 304.69 81.4 306.5 84.53L306.72 95.38C305.46 97.22 304.76 99.2 304.62 101.28C304.6 101.416 304.59 101.553 304.59 101.69L304.41 107.46L269.84 101.71C267.37 101.27 264.94 101.05 262.66 101.05C257.92 101.05 253.46 102.01 249.4 103.91C244.3 106.31 241.3 109.54 240.46 113.51C240.417 113.722 240.383 113.935 240.36 114.15C240.32 114.35 240.3 114.55 240.29 114.73L240.28 114.86C240.26 115.11 240.25 115.36 240.24 115.6L239.14 137.14C238.87 142.31 240.07 145.14 241.96 147.79L252.18 162.27C251.91 162.42 251.64 162.57 251.38 162.75C251.228 162.834 251.081 162.927 250.94 163.03C250.93 163.04 250.91 163.05 250.9 163.06C250.88 163.07 250.87 163.08 250.85 163.1C250.84 163.1 250.84 163.11 250.83 163.11C250.78 163.14 250.73 163.18 250.69 163.21L199.86 200.47C190.5 207.35 189.13 216.33 189.96 227.69C189.97 227.76 189.97 227.83 189.98 227.91C190.026 228.872 190.13 229.83 190.29 230.78C192.21 242.34 199.96 252.98 210.04 257.86L255.24 279.66C258.04 281 260.82 281.83 263.5 282.11C264.417 282.245 265.343 282.312 266.27 282.31C272.67 282.31 277.57 279.06 281.89 275.55L318.96 245.49C319.203 245.51 319.446 245.52 319.69 245.52C323.39 245.52 326.32 243.32 326.87 242.87C326.89 242.86 326.9 242.84 326.92 242.83L346.37 226.6C348.27 226.43 350.12 225.44 351.52 223.83L355.28 219.53L374.7 215.53L393.57 218.06C395.4 218.3 397.23 218.43 399.02 218.43C406.22 218.43 412.55 216.45 416.82 212.86C420.4 209.86 422.4 205.84 422.58 201.28C422.82 195.04 422.92 188.4 422.98 183.54L423.08 178.04L423.03 177.44L422.96 177.45ZM394.13 213.15L374.5 210.52C374.44 210.51 374.4 210.52 374.33 210.53L346.23 216.33C345.96 216.39 345.79 216.65 345.83 216.93C345.853 217.043 345.915 217.144 346.004 217.217C346.093 217.29 346.205 217.33 346.32 217.33C346.35 217.33 346.39 217.33 346.42 217.32L351.42 216.29L347.62 220.63C346.82 221.53 345.9 221.9 345.12 221.59C344.42 221.32 344.02 220.56 344.06 219.61L344.76 200.69L348.61 198.81C348.687 198.772 348.752 198.716 348.801 198.646C348.85 198.576 348.881 198.495 348.89 198.41L350.34 183.28L393.12 189.35C395.69 189.72 398.14 189.9 400.42 189.9C408.97 189.9 415.25 187.38 417.45 182.83C417.602 182.524 417.745 182.214 417.88 181.9L417.86 183.52L417.46 201.12C417.34 204.28 416 206.95 413.48 209.07C409.21 212.67 401.98 214.2 394.13 213.15ZM396.69 214.4C396.52 214.39 396.34 214.37 396.17 214.36C396.34 214.37 396.52 214.39 396.69 214.4ZM263.92 277.18H263.9C261.83 276.96 259.6 276.3 257.3 275.18L212.13 253.38C203.46 249.18 196.79 239.98 195.13 229.98C194.16 224.13 195.81 218.82 199.45 216.13C201.05 214.95 202.91 214.36 204.95 214.36C206.85 214.36 208.91 214.89 211.02 215.94L260.4 240.46C267.92 244.21 276.1 255 276.25 265.09C276.33 269.73 274.55 273.56 271.35 275.61C269.32 276.91 266.87 277.43 264.15 277.19C264.07 277.18 263.99 277.18 263.91 277.17L263.92 277.18ZM260.58 277.52C260.528 277.501 260.475 277.487 260.42 277.48C260.47 277.49 260.52 277.51 260.58 277.52ZM258.84 276.92C258.722 276.876 258.606 276.829 258.49 276.78C258.61 276.83 258.72 276.88 258.84 276.92ZM277.24 265.08C277.07 254.63 268.62 243.45 260.84 239.58L211.46 215.06C206.76 212.71 202.28 212.82 198.86 215.36C196.92 216.79 195.51 218.89 194.69 221.39C194.86 214.29 196.76 208.96 202.75 204.56L253.75 167.19C256.25 165.41 259.35 165.42 263.19 167.24L268.43 169.74C268.45 169.82 268.47 169.9 268.53 169.97C268.63 170.09 268.77 170.15 268.91 170.15C268.994 170.145 269.077 170.121 269.15 170.08L322.23 195.24C326.86 197.44 332.56 200.68 335.58 206.18C341.54 217 335.95 225.03 335.48 225.68L278.65 271.76C276.92 273.16 275.11 274.53 273.15 275.56C275.85 273.18 277.35 269.46 277.25 265.1L277.24 265.08ZM259.68 164.36L245.95 144.92C244.57 142.98 243.85 141.22 244.05 137.42L244.97 119.35C245.63 120.85 246.67 122.45 248.13 124.15L266.85 145.93L266.13 163.61C266.13 163.62 266.14 163.63 266.14 163.64C266.141 163.714 266.162 163.787 266.2 163.85C266.21 163.87 266.21 163.89 266.23 163.9C266.24 163.91 266.24 163.92 266.24 163.93C266.292 163.993 266.356 164.045 266.43 164.08L271.81 166.5L269.01 168.84L263.61 166.28C262.19 165.61 260.87 165.18 259.61 164.98C259.79 164.84 259.81 164.58 259.68 164.38V164.36ZM308.53 77.76C308.53 77.86 308.55 77.96 308.55 78.06C308.54 77.96 308.53 77.88 308.53 77.76ZM344.28 199.81L338.58 196.97C338.498 196.928 338.405 196.911 338.313 196.92C338.221 196.929 338.133 196.963 338.06 197.02L332.81 200.92C329.73 197.92 325.94 195.86 322.67 194.3L270 169.34L273.07 166.78C273.2 166.68 273.27 166.5 273.24 166.33C273.228 166.246 273.195 166.166 273.145 166.098C273.094 166.03 273.027 165.976 272.95 165.94L267.6 163.54L283.38 151.36C283.22 151.58 283.08 151.81 282.91 152.03C281.61 153.83 281.13 155.8 281.57 157.47C281.97 158.97 283.07 160.14 284.87 160.95L332.47 182.48C335.67 183.92 339.1 184.65 342.39 184.65C344.82 184.65 347.16 184.23 349.31 183.45L347.91 198.05L344.27 199.83L344.28 199.81ZM267.86 145.94L303.61 119.34C302.51 121.77 302.09 124.48 302.03 126.18C301.95 128.22 302.37 130.21 303.2 132.08L290.63 141.14C290.161 141.54 289.769 142.021 289.47 142.56C288.27 144.19 287.13 145.88 286.01 147.54L285.26 148.64L267.19 162.59L267.86 145.92V145.94ZM352.98 69.94C352.96 69.98 352.95 70.02 352.93 70.06C352.937 70.0165 352.954 69.9753 352.98 69.94V69.94ZM352.55 74.14C352.578 74.2186 352.601 74.2987 352.62 74.38C352.592 74.3014 352.569 74.2213 352.55 74.14V74.14ZM351.99 71.78C352.01 71.75 352.04 71.71 352.06 71.68C352.04 71.71 352.01 71.74 351.99 71.78ZM352.39 71.16C352.41 71.13 352.42 71.1 352.44 71.08C352.42 71.1 352.4 71.13 352.39 71.16ZM351.49 77.86L351.41 73.86C351.96 75.06 351.99 76.36 351.49 77.86ZM352.29 102.44L352.26 104.1L352.29 102.44ZM350.95 104.46L351 100.36C351.4 101.66 351.37 103.04 350.95 104.46ZM353.09 118.63C353.26 119.4 353.34 120.17 353.29 120.93C352.89 128.69 342.02 134.63 329.07 134.23C320.85 133.96 313.27 131.07 309.27 126.71C307.22 124.48 306.22 121.96 306.35 119.44C306.4 118.5 306.61 117.59 306.95 116.7C309.05 122.42 318.87 126.9 330.55 127.03H331.17C339.91 127.03 347.67 124.63 351.54 120.7C352.148 120.091 352.67 119.401 353.09 118.65V118.63ZM308.52 127.36C312.76 131.99 320.42 134.92 329.02 135.21L330.34 135.23C343.24 135.23 353.86 128.99 354.27 120.98C354.28 120.88 354.27 120.78 354.27 120.68C356.47 123.42 357.47 126.43 357.17 129.45C356.81 133.25 354.47 136.63 350.84 139.25C350.806 139.272 350.773 139.296 350.74 139.32C345.4 143.14 337.28 145.32 328.42 144.78C313.8 143.91 302.64 135.76 303.02 126.22C303.1 124.15 303.72 120.52 305.52 117.94C305.42 118.41 305.35 118.88 305.32 119.36C305.18 122.16 306.28 124.92 308.52 127.36ZM357.02 133.66C357.02 133.67 357.02 133.67 357.01 133.68C357.01 133.67 357.01 133.67 357.02 133.66ZM356.36 134.86C356.32 134.92 356.29 134.98 356.26 135.03C356.301 134.978 356.335 134.921 356.36 134.86V134.86ZM355.46 136.16C355.432 136.198 355.398 136.232 355.36 136.26C355.394 136.226 355.424 136.189 355.45 136.15L355.46 136.16ZM353.36 138.44C353.32 138.48 353.28 138.51 353.24 138.54C353.275 138.501 353.315 138.467 353.36 138.44V138.44ZM387.76 152.24L377.93 159.97C377.81 158.52 377.31 157.14 376.53 156.14L371.1 149.42L380.46 153.72C380.53 153.75 380.6 153.77 380.66 153.77C380.73 153.77 380.8 153.756 380.864 153.726C380.928 153.697 380.985 153.654 381.03 153.6C381.17 153.46 384.23 150.1 387.76 152.23V152.24ZM349.63 182.24C344.7 184.32 338.43 184.06 332.88 181.54L285.28 160C283.78 159.32 282.86 158.37 282.54 157.18C282.18 155.83 282.62 154.11 283.74 152.58C284.54 151.48 285.3 150.35 286.07 149.22C286.08 149.21 286.09 149.2 286.09 149.19L288.95 144.97C288.96 145.02 288.95 145.07 288.96 145.13C289.13 146.25 289.86 147.83 292.46 148.95L336.96 168.61C339.49 169.73 341.76 170.29 343.66 170.29C345.36 170.29 346.76 169.85 347.88 168.97L369.68 151.63C370.14 151.26 370.42 150.8 370.54 150.31L375.74 156.75C376.52 157.73 376.97 159.25 376.94 160.73L349.64 182.21L349.63 182.24ZM369.59 149.68C369.65 150.13 369.47 150.53 369.04 150.88L347.24 168.22C344.64 170.27 340.44 169.08 337.34 167.72L292.84 148.06C291.14 147.31 290.12 146.26 289.94 145.01C289.84 144.37 289.98 143.71 290.3 143.09L290.7 142.53C290.73 142.49 290.74 142.45 290.75 142.43C290.897 142.251 291.057 142.084 291.23 141.93C291.26 141.91 293.8 140.08 296.63 138.05L303.63 133C304.53 134.73 305.83 136.35 307.41 137.82L306.91 145.17C306.76 152.31 316.87 158.4 329.44 158.77H330.6C338.37 158.77 345.5 156.52 349.42 152.8C351.39 150.93 352.45 148.75 352.5 146.5V146.48L352.1 140.68L368.33 148.16C369.01 148.46 369.53 149.06 369.6 149.66L369.59 149.68ZM351.07 140.25L351.5 146.5C351.45 148.47 350.5 150.4 348.73 152.07C344.8 155.81 337.4 157.99 329.43 157.75C317.41 157.39 307.73 151.75 307.87 145.19L308.33 138.62C313.11 142.57 320.2 145.27 328.33 145.76C329.23 145.82 330.13 145.84 331.03 145.84C338.93 145.85 346.06 143.72 351.03 140.24L351.07 140.25ZM388.85 152.65C388.89 152.63 388.93 152.6 388.95 152.55L392.62 149.65L413.32 170.45C418.5 175.65 418.95 177.32 416.52 182.32C413.96 187.6 404.82 189.95 393.22 188.29L351.08 182.31L388.81 152.61L388.85 152.65ZM418.83 176.72C418.84 176.79 418.86 176.86 418.87 176.92C418.863 176.852 418.849 176.785 418.83 176.72V176.72ZM418.6 175.84C418.63 175.92 418.66 176.01 418.68 176.09C418.66 176.01 418.63 175.93 418.6 175.84ZM418.25 175C418.29 175.07 418.31 175.14 418.35 175.2C418.31 175.13 418.28 175.06 418.25 175ZM415.15 170.92C415.23 171 415.3 171.08 415.37 171.16C415.3 171.08 415.23 171.01 415.15 170.92ZM416.11 171.98C416.19 172.08 416.27 172.18 416.35 172.26C416.27 172.16 416.19 172.06 416.11 171.98ZM416.96 173.01C417.02 173.08 417.08 173.16 417.13 173.23C417.07 173.15 417.01 173.08 416.96 173.01ZM381.24 152.09C381.25 152.08 381.26 152.08 381.27 152.07C381.26 152.08 381.25 152.09 381.24 152.09ZM380.84 152.43C380.86 152.42 380.87 152.4 380.89 152.39C380.88 152.4 380.86 152.41 380.84 152.43ZM357.5 132.43C357.52 132.36 357.55 132.3 357.57 132.23C357.55 132.3 357.52 132.36 357.5 132.43ZM357.92 131.01C357.94 130.94 357.95 130.86 357.97 130.79C357.95 130.87 357.93 130.94 357.92 131.01ZM358.12 126.76C358.12 126.79 358.12 126.82 358.13 126.84C358.13 126.82 358.13 126.79 358.12 126.76ZM353.99 118.06C353.99 118.08 354 118.1 354 118.12C353.99 118.1 353.99 118.08 353.99 118.06ZM353.92 116.03C353.91 116.08 353.9 116.13 353.9 116.19C353.91 116.14 353.92 116.09 353.92 116.03ZM353.12 69.49C353.163 69.3753 353.199 69.2585 353.23 69.14C353.189 69.2543 353.155 69.3712 353.13 69.49H353.12ZM353.39 68.39C353.368 68.5342 353.342 68.6776 353.31 68.82L353.39 68.39ZM353.49 67.44C353.48 67.66 353.47 67.88 353.44 68.1C353.46 67.88 353.48 67.66 353.49 67.44ZM350.22 62.94C350.18 64.67 349.32 66.36 347.77 67.84C344.29 71.14 337.75 73.04 330.73 72.84C320.11 72.54 311.58 67.58 311.73 61.79C311.76 60.07 312.6 58.39 314.15 56.91C317.45 53.76 323.53 51.86 330.19 51.86L331.19 51.87C341.79 52.19 350.34 57.15 350.23 62.93L350.22 62.94ZM331.37 50.9C331.917 50.9197 332.464 50.9497 333.01 50.99C332.464 50.9497 331.917 50.9197 331.37 50.9V50.9ZM333.61 51.05C334.05 51.09 334.48 51.15 334.91 51.2C334.48 51.14 334.05 51.1 333.61 51.05ZM335.41 51.27C335.95 51.35 336.48 51.45 337.01 51.55L335.41 51.27ZM337.61 51.67L338.63 51.91L337.61 51.67ZM339.31 52.09C339.71 52.19 340.11 52.33 340.51 52.45C340.11 52.32 339.71 52.2 339.31 52.09ZM341.37 52.75L342.07 53.01C341.84 52.93 341.61 52.84 341.37 52.75ZM342.85 53.35C343.02 53.43 343.19 53.5 343.35 53.58L342.85 53.35ZM344.87 54.35C344.95 54.39 345.03 54.45 345.11 54.48C345.03 54.44 344.94 54.4 344.87 54.35ZM345.91 54.98C345.99 55.03 346.07 55.08 346.15 55.14C346.068 55.0902 345.988 55.0368 345.91 54.98ZM313.87 55.83C313.97 55.75 314.05 55.67 314.15 55.59C314.05 55.67 313.97 55.75 313.87 55.83ZM310.78 62.57C311.34 68.57 320 73.55 330.71 73.87C331.053 73.8782 331.397 73.8816 331.74 73.88C338.64 73.88 344.97 71.88 348.46 68.58C350.19 66.94 351.13 65.04 351.21 63.08C351.78 64.48 352.24 65.98 352.49 67.41C352.44 69.29 351.52 71.14 349.82 72.75C348.58 73.93 346.97 74.95 345.1 75.78C345.07 75.79 345.04 75.8 345.02 75.82C341.12 77.54 336.1 78.45 330.78 78.3C318.98 77.92 309.48 72.45 309.55 66.1C309.82 65.3892 310.073 64.6724 310.31 63.95L310.78 62.59V62.57ZM323.28 78.33C325.61 78.87 328.13 79.21 330.75 79.29L331.95 79.31C336.65 79.31 341.1 78.49 344.73 77.01L344.45 84.58C336.91 88.38 328.65 87.62 322.88 86.22L323.28 78.32V78.33ZM311.45 84.67C312.45 85.84 313.45 86.63 313.9 86.95L313.38 108.19C311.38 106.99 310.03 105.21 309.64 103.22C309.24 101.16 309.91 99.08 311.57 97.2C311.65 97.1 311.7 96.98 311.7 96.86L311.45 84.66V84.67ZM308.79 100.17C308.82 100.04 308.86 99.92 308.89 99.79C308.85 99.92 308.81 100.05 308.79 100.17ZM309.03 99.43C309.125 99.1736 309.235 98.9232 309.36 98.68C309.235 98.9232 309.125 99.1736 309.03 99.43V99.43ZM309.48 98.45C309.58 98.25 309.72 98.03 309.85 97.82C309.72 98.02 309.6 98.24 309.48 98.45ZM310.66 96.73C310.43 97 310.22 97.28 310.04 97.53C310.236 97.2517 310.443 96.9815 310.66 96.72V96.73ZM310.5 83.45C309.939 82.6424 309.479 81.7693 309.13 80.85C309.49 81.81 309.97 82.68 310.5 83.45ZM309.02 80.52C308.95 80.32 308.87 80.1 308.82 79.87C308.88 80.1 308.95 80.31 309.02 80.52ZM311.2 72.14C311.96 72.96 312.87 73.72 313.9 74.44L313.6 82.67C312.42 81.69 310.2 79.54 309.82 76.85C309.6 75.25 310.06 73.68 311.19 72.15L311.2 72.14ZM308.87 68.26C308.85 68.19 308.82 68.11 308.81 68.04C308.82 68.11 308.85 68.18 308.87 68.26ZM308.7 67.6C308.68 67.52 308.67 67.45 308.65 67.37C308.673 67.4453 308.689 67.5222 308.7 67.6V67.6ZM309.1 68.9C309.07 68.83 309.05 68.77 309.02 68.7C309.05 68.76 309.07 68.83 309.1 68.9ZM309.38 69.53C309.35 69.47 309.32 69.41 309.3 69.35C309.33 69.41 309.35 69.47 309.38 69.53ZM310.55 71.36C310.53 71.34 310.52 71.32 310.51 71.31C310.52 71.32 310.53 71.34 310.55 71.36ZM310.11 70.78C310.08 70.74 310.06 70.7 310.03 70.68C310.06 70.7108 310.087 70.7443 310.11 70.78V70.78ZM309.71 70.16C309.68 70.11 309.65 70.06 309.63 70.01C309.65 70.06 309.68 70.11 309.71 70.16ZM309.01 74.39C309.019 74.3563 309.029 74.3229 309.04 74.29C309.02 74.33 309.01 74.36 309.01 74.39ZM308.83 75.37C308.81 75.44 308.81 75.5 308.79 75.57C308.81 75.5 308.81 75.44 308.83 75.37ZM308.6 76.77C308.61 76.7 308.6 76.63 308.61 76.57C308.6 76.64 308.6 76.71 308.6 76.77ZM308.7 79.25C308.67 79.11 308.64 78.97 308.62 78.82C308.64 78.96 308.67 79.1 308.7 79.25ZM308.69 100.59C308.68 100.64 308.68 100.69 308.67 100.73C308.671 100.683 308.678 100.636 308.69 100.59V100.59ZM309.15 110.32C309.16 110.31 309.17 110.29 309.18 110.27C309.2 110.24 309.22 110.21 309.23 110.17C309.24 110.14 309.25 110.11 309.25 110.07C309.25 110.05 309.26 110.03 309.26 110.01L309.4 105.49C310.26 107.12 311.72 108.52 313.63 109.47C313.7 109.5 313.78 109.52 313.85 109.52C313.942 109.523 314.032 109.499 314.11 109.45C314.183 109.407 314.243 109.345 314.286 109.272C314.328 109.198 314.35 109.115 314.35 109.03L314.89 86.7C314.89 86.53 314.81 86.37 314.67 86.27C314.62 86.24 310.94 83.75 309.84 79.8C311.27 82.35 313.66 83.96 313.8 84.05C313.882 84.1062 313.981 84.1343 314.08 84.13C314.16 84.13 314.24 84.11 314.31 84.08C314.39 84.0398 314.458 83.9785 314.505 83.9027C314.553 83.8269 314.579 83.7395 314.58 83.65L314.88 75.05C316.98 76.31 319.48 77.35 322.28 78.08L321.85 86.58C321.84 86.82 322 87.03 322.23 87.08C325.01 87.78 328.41 88.36 332.05 88.36C336.28 88.36 340.85 87.58 345.17 85.33C345.249 85.2881 345.315 85.2264 345.362 85.151C345.41 85.0755 345.437 84.989 345.44 84.9L345.74 76.56C347.56 75.72 349.14 74.72 350.38 73.56L350.51 80.01C350.51 80.12 350.548 80.2267 350.617 80.3123C350.686 80.3979 350.783 80.4571 350.89 80.48C350.929 80.4915 350.969 80.4982 351.01 80.5C351.19 80.5 351.35 80.4 351.44 80.25C351.67 79.85 351.88 79.45 352.04 79.05C351.86 80.71 351.34 82.39 350.34 83.47C350.26 83.57 350.21 83.67 350.21 83.8L349.91 106.9C349.91 107.13 350.06 107.33 350.28 107.4C350.323 107.411 350.366 107.417 350.41 107.42C350.499 107.421 350.587 107.399 350.664 107.355C350.741 107.311 350.806 107.247 350.85 107.17C350.99 106.93 351.09 106.69 351.21 106.45L351.13 110.62C351.13 110.64 351.14 110.67 351.14 110.69C351.14 110.73 351.15 110.76 351.16 110.79C351.17 110.82 351.19 110.85 351.21 110.89C351.22 110.91 351.23 110.94 351.25 110.96C352.37 112.29 352.95 113.7 352.99 115.16C353.006 115.735 352.932 116.308 352.77 116.86C352.71 116.96 352.67 117.06 352.67 117.16C352.33 118.14 351.71 119.09 350.82 120C347.05 123.83 339.27 126.13 330.56 126.03C318.02 125.87 307.7 120.73 307.56 114.57C307.51 113.09 308.06 111.67 309.14 110.35L309.15 110.32ZM306.72 112.92C306.6 113.45 306.52 114 306.54 114.55C306.543 114.727 306.556 114.904 306.58 115.08L306.35 115.55C305.59 116.17 304.95 116.95 304.43 117.79C304.35 117.753 304.261 117.739 304.173 117.748C304.086 117.756 304.002 117.788 303.93 117.84L267.4 145L248.9 123.48C246.4 120.58 245.16 117.98 245.16 115.72L245.18 115.25C245.2 115.02 245.22 114.78 245.26 114.55C245.76 112.19 247.84 110.13 251.43 108.45C256.53 106.05 262.25 105.47 268.9 106.65L306.72 112.92V112.92ZM266.88 105.32C267.583 105.402 268.283 105.502 268.98 105.62C268.28 105.5 267.58 105.42 266.88 105.32ZM251.08 107.5C251.642 107.241 252.212 107.001 252.79 106.78C252.216 107.002 251.649 107.242 251.09 107.5H251.08ZM253.3 106.6C253.87 106.4 254.44 106.2 255.02 106.05C254.44 106.211 253.866 106.394 253.3 106.6V106.6ZM255.16 106C255.765 105.838 256.375 105.698 256.99 105.58C256.376 105.701 255.766 105.841 255.16 106V106ZM257.54 105.48C258.128 105.377 258.718 105.291 259.31 105.22C258.718 105.292 258.128 105.379 257.54 105.48V105.48ZM259.5 105.2C260.15 105.13 260.8 105.1 261.47 105.07C260.812 105.088 260.155 105.131 259.5 105.2V105.2ZM336.16 226.33C336.19 226.31 336.22 226.28 336.24 226.25C336.31 226.15 342.98 217.45 336.46 205.61C335.64 204.11 334.63 202.79 333.51 201.59L338.41 197.95L343.77 200.62L343.07 219.52C343.03 220.55 343.37 221.42 344.01 222L323.63 239C323.6 239.02 321.17 240.93 318.77 240.44L336.17 226.34L336.16 226.33ZM418.96 177.75C418.97 177.78 418.97 177.81 418.97 177.83C418.97 177.8 418.97 177.78 418.96 177.75ZM348.46 57.05L348.34 56.93L348.46 57.05ZM331 50.95C330.67 50.94 330.34 50.94 330 50.94H330.2L331 50.95ZM314.56 55.33L314.92 55.06L314.56 55.33ZM315.36 54.77L315.76 54.5L315.36 54.77ZM316.21 54.25C316.358 54.1596 316.508 54.0729 316.66 53.99C316.508 54.0729 316.358 54.1596 316.21 54.25ZM317.11 53.75C317.277 53.6607 317.447 53.5773 317.62 53.5C317.45 53.58 317.28 53.67 317.12 53.75H317.11ZM318.07 53.3C318.27 53.22 318.44 53.13 318.64 53.05C318.44 53.13 318.24 53.22 318.07 53.3ZM319.07 52.88L319.7 52.64L319.07 52.88ZM320.12 52.5C320.35 52.42 320.58 52.35 320.82 52.28C320.58 52.35 320.35 52.42 320.12 52.5ZM321.22 52.16L321.99 51.96L321.22 52.16ZM322.36 51.86L323.2 51.66C322.919 51.7164 322.639 51.7797 322.36 51.85V51.86ZM323.53 51.59L324.43 51.42L323.53 51.59ZM324.76 51.37L325.7 51.23L324.76 51.37ZM326.02 51.19C326.32 51.15 326.65 51.12 326.97 51.09L326.02 51.19ZM327.32 51.06C327.629 51.03 327.94 51.01 328.25 51L327.32 51.06ZM328.65 50.98L329.5 50.95C329.22 50.96 328.93 50.96 328.65 50.98ZM309.37 63.66C309.79 62.41 310.22 61.14 310.82 59.92C310.22 61.14 309.79 62.42 309.37 63.66L308.59 65.86C308.58 65.89 308.58 65.93 308.57 65.96C308.58 65.93 308.58 65.9 308.59 65.86C308.874 65.1319 309.134 64.3948 309.37 63.65V63.66ZM308.57 65.98C308.57 66 308.56 66.02 308.56 66.04V66.07V66.04C308.56 66.02 308.57 66 308.57 65.98ZM308.6 66.95C308.59 66.88 308.58 66.81 308.58 66.75C308.592 66.8194 308.598 66.8896 308.6 66.96V66.95ZM308.48 103.58L308.28 109.88L308.48 103.58ZM263.95 105.13C263.32 105.1 262.69 105.1 262.08 105.11C262.25 105.11 262.42 105.1 262.6 105.1C263.05 105.095 263.501 105.105 263.95 105.13ZM266.27 105.3C265.57 105.23 264.87 105.16 264.17 105.13C264.85 105.16 265.55 105.23 266.27 105.3ZM244.22 114.97C244.22 114.97 244.22 115.04 244.21 115.17C244.21 115.05 244.22 114.97 244.22 114.97ZM244.18 115.77L243.16 136L244.18 115.78V115.77ZM245.16 145.51C243.83 143.64 243.06 141.81 243.06 138.53C243.06 141.83 243.84 143.63 245.16 145.51L258.86 164.89L245.16 145.51ZM193.89 227.44C193.16 217.32 194.24 209.84 201.72 204.09C194.24 209.85 193.16 217.32 193.89 227.44C193.89 227.46 193.9 227.48 193.91 227.5C193.9 227.48 193.89 227.47 193.89 227.44ZM193.99 228.84C193.99 228.81 193.98 228.77 193.98 228.74C193.98 228.78 193.98 228.81 193.99 228.84ZM211.71 254.3C202.76 249.96 195.87 240.48 194.16 230.16C194.16 230.14 194.15 230.11 194.15 230.09C194.15 230.11 194.16 230.14 194.16 230.16C195.86 240.48 202.76 249.96 211.71 254.3L256.89 276.1C256.92 276.11 256.95 276.13 256.99 276.14C256.96 276.13 256.93 276.11 256.89 276.1L211.71 254.3V254.3ZM263.91 278.18H263.94L264.2 278.21L263.94 278.18H263.91ZM279.29 272.5C275.74 275.38 271.56 278.37 266.19 278.37C265.82 278.37 265.44 278.35 265.06 278.32C265.44 278.35 265.82 278.37 266.19 278.37C271.56 278.36 275.74 275.37 279.29 272.5L317.84 241.24C317.85 241.24 317.85 241.24 317.86 241.25L279.3 272.5H279.29ZM318.77 241.5C318.75 241.5 318.73 241.49 318.71 241.49C318.73 241.49 318.75 241.5 318.77 241.5ZM324.27 239.82C324.15 239.92 322.05 241.58 319.61 241.58C322.04 241.57 324.15 239.91 324.27 239.82L344.95 222.56C344.96 222.56 344.97 222.57 344.98 222.57C344.97 222.57 344.96 222.57 344.95 222.56L324.27 239.82ZM374.47 211.52L353.07 215.94L348.41 221.27C347.61 222.19 346.64 222.67 345.71 222.67C345.576 222.672 345.442 222.658 345.31 222.63C345.442 222.654 345.576 222.667 345.71 222.67C346.64 222.67 347.61 222.17 348.41 221.27L353.07 215.94L374.47 211.52L394.01 214.14C394.04 214.14 394.08 214.15 394.11 214.15C394.08 214.15 394.04 214.14 394.01 214.14L374.47 211.52ZM398.74 214.47H399.24C399.14 214.47 399.04 214.48 398.92 214.48C398.86 214.47 398.79 214.47 398.72 214.47H398.74ZM412.9 210.77C412.8 210.84 412.7 210.92 412.57 210.99C412.69 210.92 412.79 210.84 412.9 210.77ZM411.22 211.77C411.12 211.82 411.02 211.87 410.92 211.91C411.02 211.869 411.116 211.823 411.21 211.77H411.22ZM409.62 212.51L409.27 212.66L409.62 212.51ZM407.69 213.21L407.25 213.34C407.398 213.303 407.545 213.259 407.69 213.21V213.21ZM405.71 213.74L405.47 213.8C405.55 213.78 405.62 213.76 405.71 213.74ZM403.68 214.11C403.51 214.14 403.33 214.16 403.16 214.18C403.334 214.161 403.507 214.138 403.68 214.11V214.11ZM401.3 214.38C401.18 214.39 401.05 214.39 400.93 214.4C401.05 214.39 401.18 214.39 401.3 214.38ZM418.9 183.52L418.5 201.15C418.37 204.55 416.87 207.55 414.17 209.82C414.16 209.83 414.14 209.84 414.13 209.85C414.14 209.84 414.16 209.83 414.17 209.82C416.87 207.55 418.37 204.55 418.5 201.15C418.74 194.98 418.83 188.35 418.9 183.52L419 177.9C418.96 178.83 418.93 180.9 418.9 183.52ZM164.76 248.18C163.66 241.76 160.23 235.08 155.13 229.38C148.03 221.42 138.93 216.66 130.75 216.66C126.49 216.66 122.73 218 119.88 220.53C119.86 220.55 119.84 220.56 119.83 220.58L115.47 224.6C113.97 224.8 112.6 225.4 111.51 226.43L92.2601 243.53C91.3213 243.412 90.3762 243.352 89.4301 243.35C85.1501 243.35 81.4301 244.68 78.7001 247.19L77.6001 248.16L77.5301 248.15C77.3837 248.139 77.237 248.132 77.0901 248.13C75.9901 248.13 74.9501 248.53 74.1301 249.25L43.1801 276.52C42.3001 277.3 41.7801 278.36 41.6801 279.52L41.3201 284.02L35.7401 286.55C35.3001 286.75 34.9401 287 34.6101 287.28L25.9601 294.82C25.8001 294.96 25.6601 295.12 25.5201 295.27C25.3201 295.49 25.2201 295.67 25.1601 295.77C25.0601 295.9 24.9201 296.14 24.7801 296.47C24.6654 296.74 24.5783 297.022 24.5201 297.31C24.4605 297.579 24.4271 297.854 24.4201 298.13C24.4101 298.56 24.4701 298.89 24.4901 299C24.5101 299.11 24.5401 299.3 24.6101 299.52C24.6619 299.702 24.7288 299.879 24.8101 300.05L27.0001 305L25.6701 306.18C24.8001 306.01 23.9301 305.92 23.0701 305.92C20.2701 305.92 17.7401 306.82 15.7901 308.55L4.30012 318.8C1.30012 321.44 -0.139883 325.5 0.400117 329.96C0.410117 330.01 0.410114 330.06 0.420114 330.12C0.430114 330.28 0.440117 330.47 0.470117 330.69C1.25012 336.49 6.37012 344.03 12.9001 348.99L37.7001 367.89C38.8601 368.76 41.1501 370.24 43.9601 370.69C44.8601 370.92 45.7601 371.04 46.6601 371.05H46.8601C50.0401 371.05 52.9601 369.9 55.1101 367.82L66.7101 356.65C68.0701 355.35 69.0101 353.38 69.3801 351.08C69.5101 351.04 69.6401 351 69.7601 350.95L85.9801 344.43C86.3801 344.26 86.7001 344.07 86.8801 343.93C87.0801 343.79 87.2801 343.63 87.4501 343.47L95.7801 335.33C97.1101 334.03 97.5001 332.08 96.7801 330.37L95.6401 327.67L108.24 316.07C108.52 315.987 108.797 315.894 109.07 315.79C109.996 315.634 110.906 315.396 111.79 315.08C120.49 314.75 127.17 306.7 130.04 303.22L130.54 302.62C133.32 299.35 134.77 295.08 134.77 290.22L153.17 273.42C154.29 272.42 155.03 271.07 155.37 269.42L159.87 265.36C164.25 261.46 165.97 255.36 164.74 248.16L164.76 248.18ZM135.26 221.23C133.96 220.93 132.71 220.73 131.48 220.69C132.71 220.74 133.98 220.93 135.26 221.23ZM131.36 220.69C130.807 220.67 130.252 220.68 129.7 220.72C130.05 220.69 130.4 220.67 130.76 220.67C130.96 220.67 131.16 220.68 131.36 220.69V220.69ZM129.53 220.73C128.96 220.77 128.41 220.85 127.87 220.95C128.419 220.846 128.973 220.773 129.53 220.73V220.73ZM126.93 221.17C126.15 221.39 125.4 221.67 124.7 222.04C125.413 221.676 126.16 221.385 126.93 221.17V221.17ZM117.05 228.57L122.53 223.51C122.71 223.35 122.9 223.21 123.09 223.06C122.899 223.208 122.712 223.361 122.53 223.52L117.05 228.57C116.92 228.56 116.79 228.55 116.67 228.55C116.797 228.547 116.924 228.553 117.05 228.57ZM115.97 229.57L95.6401 248.33L94.6901 248.07L114.87 230.12C115.176 229.834 115.558 229.643 115.97 229.57V229.57ZM93.5001 247.8L114.2 229.4C114.38 229.23 114.6 229.1 114.8 228.97C114.584 229.093 114.382 229.24 114.2 229.41L93.5001 247.81C93.4077 247.788 93.3143 247.772 93.2201 247.76C93.3201 247.77 93.4001 247.78 93.5001 247.8ZM89.4301 247.36C89.5301 247.36 89.6101 247.37 89.6901 247.37C89.5501 247.37 89.4101 247.36 89.2901 247.36C89.3401 247.37 89.3901 247.36 89.4401 247.36H89.4301ZM28.5501 297.86C28.5601 297.85 28.5601 297.84 28.5701 297.83L37.2501 290.26C37.2877 290.23 37.3279 290.203 37.3701 290.18L45.1001 286.68L45.6501 279.86C45.6608 279.729 45.7218 279.607 45.8201 279.52L76.7601 252.26C76.8469 252.178 76.961 252.132 77.0801 252.13H77.1301L78.9301 252.3L81.3601 250.17C81.7822 249.784 82.2373 249.436 82.7201 249.13C82.2371 249.44 81.782 249.791 81.3601 250.18L78.9201 252.31L77.1201 252.14C76.9801 252.13 76.8501 252.17 76.7401 252.26L45.8001 279.52C45.7713 279.549 45.7476 279.583 45.7301 279.62C45.7201 279.64 45.7001 279.65 45.6901 279.67C45.6601 279.72 45.6501 279.77 45.6401 279.83C45.6401 279.84 45.6301 279.85 45.6301 279.86L45.0801 286.68L37.3501 290.18C37.3101 290.2 37.2501 290.23 37.2301 290.26L28.5501 297.83C28.5601 297.85 28.5601 297.87 28.5501 297.86C28.5501 297.87 28.5401 297.88 28.5301 297.88C28.5401 297.88 28.5401 297.87 28.5501 297.86V297.86ZM113.51 286.84L110.48 289.64C110.46 289.65 110.43 289.65 110.41 289.66C110.33 289.71 110.27 289.78 110.23 289.86L85.7901 312.36L86.3101 310L115.29 283.42L114.79 285.64L114.16 286.22C114.02 286.16 113.86 286.15 113.72 286.23C113.62 286.292 113.543 286.386 113.503 286.496C113.463 286.607 113.462 286.728 113.5 286.84H113.51ZM108.75 300.84L88.1001 319.98L85.5601 313.96L110.56 290.93C110.63 291.05 110.7 291.17 110.76 291.29L108.74 300.84H108.75ZM111.49 292.67C113.46 296.74 114.14 300.72 113.49 304L109.75 300.9L111.48 292.66L111.49 292.67ZM85.9501 309L83.0301 304.56L82.1601 299.28L108.36 275.52L112.51 277.69L115.45 281.94L85.9501 309V309ZM81.6001 298.44L55.9301 278.94L81.9301 255.54L107.5 274.97L81.6001 298.47V298.44ZM81.8801 303.72L51.0801 280.47L55.0401 279.5L81.1701 299.37L81.8901 303.72H81.8801ZM54.9001 278.52L49.9001 279.74L47.3801 279.54L77.2801 253.2L78.7201 253.33C78.8801 253.46 79.0801 253.47 79.2601 253.38L80.2601 253.48L81.2601 254.83L54.9201 278.53L54.9001 278.52ZM51.2401 292.05L70.1401 306.42C70.2322 306.488 70.3443 306.523 70.4586 306.519C70.5728 306.515 70.6825 306.473 70.7701 306.4L74.6301 303.07L78.5301 306.13L72.5301 311.76L45.0001 290.72L51.2801 285.12L54.7001 287.76L51.2001 291.26C51.1001 291.36 51.0401 291.5 51.0501 291.66C51.0701 291.81 51.1501 291.94 51.2501 292.03L51.2401 292.05ZM43.9401 290.35L32.0901 296.13L37.8701 291.09L45.3701 287.69C45.4214 287.713 45.4751 287.729 45.5301 287.74H45.5701C45.7901 287.74 45.9701 287.59 46.0401 287.39L48.5401 286.26L43.9401 290.36V290.35ZM28.5001 297.95C28.5101 297.94 28.5201 297.92 28.5301 297.91C28.5101 297.92 28.5101 297.94 28.5001 297.95C28.4901 297.97 28.4801 297.98 28.4701 298C28.4801 297.98 28.4801 297.96 28.5001 297.95ZM28.4501 298.02C28.4501 298.03 28.4501 298.04 28.4401 298.04C28.4501 298.04 28.4501 298.03 28.4501 298.02ZM28.4301 298.12C28.4301 298.11 28.4401 298.1 28.4401 298.09C28.4301 298.1 28.4301 298.11 28.4301 298.12C28.4301 298.14 28.4301 298.15 28.4201 298.16C28.4201 298.14 28.4201 298.13 28.4301 298.12ZM26.6901 310.65L31.8501 306.07V306.08L26.6901 310.65C26.2223 310.476 25.7448 310.329 25.2601 310.21C25.7401 310.33 26.2201 310.47 26.6901 310.65ZM23.0701 309.95C23.2701 309.95 23.4501 309.97 23.6401 309.98C23.4001 309.96 23.1701 309.96 22.9401 309.96C22.9901 309.96 23.0401 309.95 23.0701 309.95V309.95ZM4.40012 329.45C4.02012 326.35 4.96012 323.55 6.98012 321.77L18.4501 311.57C18.5001 311.53 18.5501 311.5 18.6101 311.45L18.4501 311.58L6.98012 321.78C4.95012 323.54 4.02012 326.34 4.40012 329.45ZM4.47012 330.13C4.44012 329.93 4.44012 329.73 4.43012 329.55C4.44012 329.75 4.44012 329.93 4.47012 330.13ZM46.7701 367.03H46.7101C46.7339 367.028 46.7577 367.032 46.7801 367.04L46.7701 367.03ZM46.2901 365.73C45.8601 365.81 45.3901 365.81 44.9301 365.75C44.9101 365.74 44.8901 365.74 44.8801 365.74C44.8501 365.73 44.8201 365.73 44.7801 365.73C43.3301 365.5 41.8201 364.69 40.7801 363.9L15.9601 345C10.5601 340.9 6.06011 334.47 5.46011 330C5.29011 328.7 5.46011 327.7 5.99011 327C6.52011 326.3 7.22012 325.9 8.14012 325.78C8.34012 325.75 8.54011 325.74 8.74011 325.74C10.9401 325.74 13.5701 327.14 14.8401 328.09L37.8701 346.03C47.1701 353.3 49.9701 361.4 48.3301 364.21C47.8301 365.06 47.1501 365.55 46.2801 365.71L46.2901 365.73ZM63.2901 353.03L51.6901 364.21C50.7101 365.16 49.4401 365.71 48.1701 365.91C48.5814 365.578 48.9302 365.175 49.2001 364.72C51.3401 361.02 47.5501 352.32 38.5001 345.25L15.4701 327.31C13.9001 326.11 10.6201 324.45 8.02011 324.81C7.10339 324.919 6.25049 325.335 5.60011 325.99C5.95011 324.61 6.64012 323.41 7.65012 322.52L19.1201 312.32C21.4801 310.24 25.7601 310.58 29.0701 313.12L55.0401 333.22C63.0401 339.39 64.4801 345.12 64.6401 348C64.7801 350.47 64.0701 352.3 63.3101 353.04L63.2901 353.03ZM65.5501 344.6C65.5401 344.61 65.5401 344.63 65.5301 344.64L65.1301 345.02C64.2301 341.74 61.8101 337.18 55.6301 332.42L29.6601 312.32C29.0472 311.839 28.3832 311.426 27.6801 311.09L36.1801 303.55C38.3301 301.65 41.1501 301.79 43.9201 303.9L67.0001 321.57C73.5301 326.59 74.7001 330.99 74.8001 333.17C74.9001 334.82 74.4301 336.27 73.5801 337.09L65.6801 344.54C65.6301 344.56 65.5801 344.59 65.5501 344.64V344.6ZM68.2101 346.18L66.6901 344.91L74.2701 337.77C75.3301 336.77 75.9001 335.01 75.8001 333.07C75.6801 330.72 74.4501 325.99 67.6001 320.73L44.5301 303.08C41.3901 300.68 38.0301 300.58 35.5301 302.78L32.6301 305.34L29.5501 298.42L44.1501 291.3L72.1501 312.67L83.6801 339.94L68.2101 346.18V346.18ZM84.5101 339.36L73.1501 312.49L79.6301 306.41C79.6401 306.4 79.6501 306.39 79.6601 306.37C79.6701 306.36 79.6801 306.36 79.6901 306.35C79.7001 306.33 79.7101 306.31 79.7201 306.3C79.7401 306.27 79.7501 306.24 79.7601 306.2C79.7701 306.16 79.7801 306.14 79.7801 306.1C79.7801 306.06 79.7901 306.04 79.7901 306C79.7901 305.97 79.7801 305.94 79.7801 305.9L79.7501 305.8C79.7401 305.77 79.7201 305.74 79.7001 305.72C79.6901 305.7 79.6801 305.68 79.6701 305.67C79.6601 305.66 79.6501 305.66 79.6401 305.65C79.6301 305.64 79.6301 305.63 79.6201 305.62L74.9201 301.95C74.7201 301.8 74.4701 301.81 74.2901 301.96L70.4201 305.29L52.3001 291.51L55.8001 288.01C55.9001 287.91 55.9601 287.77 55.9501 287.63C55.9401 287.49 55.8701 287.35 55.7501 287.27L51.7701 284.2C51.7601 284.18 51.7601 284.17 51.7501 284.17C51.7401 284.15 51.7201 284.13 51.7101 284.11C51.7001 284.09 51.6901 284.06 51.6701 284.04H51.6801C51.6601 284.02 51.6301 284 51.6001 283.98C51.5701 283.96 51.5501 283.94 51.5201 283.93C51.4901 283.92 51.4701 283.92 51.4401 283.91C51.4001 283.9 51.3701 283.89 51.3401 283.89C51.3101 283.89 51.2901 283.9 51.2601 283.9C51.2201 283.91 51.1901 283.91 51.1601 283.93C51.1501 283.93 51.1501 283.93 51.1401 283.94L46.1701 286.19L46.6401 280.42L49.7701 280.68L82.3701 305.28L85.3701 309.83L84.7301 312.73L84.2901 312.23C84.2301 312.159 84.151 312.108 84.0623 312.081C83.9736 312.054 83.879 312.054 83.7901 312.08C83.7029 312.101 83.6232 312.146 83.5597 312.21C83.4962 312.273 83.4514 312.353 83.4301 312.44L83.1101 313.74L81.9101 310.71C81.8801 310.636 81.8327 310.569 81.7718 310.517C81.7108 310.465 81.6382 310.428 81.5601 310.41C81.4101 310.38 81.2301 310.42 81.1101 310.53L76.4901 314.83C76.4164 314.901 76.3655 314.992 76.3441 315.092C76.3227 315.191 76.3318 315.295 76.3701 315.39L84.3701 334.34C84.4025 334.415 84.4519 334.481 84.5144 334.533C84.5769 334.585 84.6508 334.622 84.7301 334.64C84.7628 334.648 84.7965 334.652 84.8301 334.65C84.9601 334.65 85.0801 334.6 85.1701 334.52L89.4701 330.52C89.6201 330.38 89.6701 330.16 89.5901 329.97L83.7601 315.33L84.1901 313.57L84.5901 314.01L92.1401 331.91L84.5701 339.29L84.5101 339.36ZM88.4601 330.06L84.9401 333.33L77.3601 315.36L81.1901 311.78L88.4601 330.06V330.06ZM90.8901 326.59L93.1201 331.87L90.8901 326.59ZM106.12 311.24L90.4801 325.62L88.5001 320.92L109.2 301.72L113.02 304.88L106.22 311.13C106.174 311.152 106.136 311.187 106.11 311.23L106.12 311.24ZM108.1 310.77L112.55 306.67C112.203 307.358 111.766 307.997 111.25 308.57C110.39 309.51 109.33 310.23 108.1 310.77V310.77ZM111.36 309.84C111.56 309.64 111.79 309.47 111.98 309.26C115.78 305.08 115.68 298.18 111.78 291.02C111.76 290.924 111.711 290.837 111.64 290.77L111.31 290.19L113.96 287.75C118.16 296.15 118 304.37 113.46 308.43C112.83 308.98 112.13 309.45 111.36 309.83V309.84ZM126.74 299.4L126.24 300C123.99 302.72 119.06 308.67 113.27 309.84C113.57 309.64 113.85 309.4 114.12 309.16C119.14 304.69 119.35 296.06 114.72 287.03L115.58 286.23C115.658 286.162 115.711 286.071 115.73 285.97L116.59 282.05V281.85C116.59 281.84 116.58 281.83 116.58 281.81C116.57 281.78 116.56 281.75 116.55 281.73L116.52 281.67L113.26 276.95C113.25 276.94 113.23 276.93 113.22 276.91C113.202 276.879 113.179 276.852 113.15 276.83L80.8001 252.5C80.7901 252.49 80.7801 252.49 80.7701 252.49C80.7456 252.473 80.7186 252.459 80.6901 252.45C80.6501 252.44 80.6201 252.42 80.5901 252.42C80.5801 252.42 80.5701 252.41 80.5601 252.41L80.3301 252.39L82.0601 250.87C85.0401 248.11 89.7901 247.57 95.5601 249.27C95.6201 249.3 95.6901 249.33 95.7601 249.33C96.2735 249.486 96.7836 249.653 97.2901 249.83C98.3551 250.221 99.4027 250.658 100.43 251.14C100.45 251.15 100.47 251.16 100.5 251.17C106.15 253.84 111.88 258.17 116.93 263.63C117.95 264.73 118.9 265.85 119.81 266.96C119.82 266.97 119.82 266.98 119.83 266.99C119.84 267 119.84 267 119.85 267C121.287 268.771 122.619 270.624 123.84 272.55C123.864 272.612 123.897 272.669 123.94 272.72C124.986 274.373 125.928 276.09 126.76 277.86C126.75 278 126.79 278.13 126.88 278.24C126.9 278.26 126.93 278.28 126.96 278.3C130.76 286.74 130.9 294.48 126.76 299.37L126.74 299.4ZM149.86 269.7L130.61 287.26C130.58 287 130.53 286.73 130.49 286.46L150.49 268.44C150.39 268.94 150.19 269.4 149.86 269.7V269.7ZM156.56 261.63L130.28 285.31C130.11 284.48 129.9 283.64 129.64 282.78L152.54 261.94C152.74 261.74 152.76 261.44 152.57 261.24C152.37 261.04 152.07 261.02 151.87 261.21L129.31 281.74C128.893 280.49 128.412 279.261 127.87 278.06L151.7 256.36C151.9 256.16 151.92 255.86 151.73 255.66C151.53 255.46 151.23 255.44 151.03 255.63L127.43 277.13C126.676 275.568 125.841 274.046 124.93 272.57L149.29 250.4C149.49 250.2 149.51 249.9 149.32 249.7C149.12 249.5 148.82 249.48 148.62 249.67L124.39 271.72C123.34 270.08 122.16 268.44 120.86 266.82L145.28 244.65C145.48 244.45 145.5 244.15 145.31 243.95C145.12 243.75 144.81 243.73 144.61 243.92L120.23 266.05C119.397 265.028 118.53 264.034 117.63 263.07C117.154 262.556 116.671 262.049 116.18 261.55L140.54 239.35C140.74 239.15 140.76 238.85 140.57 238.65C140.38 238.45 140.07 238.43 139.87 238.62L115.47 260.84C114.015 259.405 112.49 258.044 110.9 256.76L135.24 235C135.44 234.82 135.46 234.5 135.28 234.3C135.1 234.1 134.78 234.08 134.58 234.26L110.1 256.1C108.8 255.1 107.48 254.15 106.15 253.3L129.93 232.14C130.13 231.96 130.15 231.64 129.97 231.44C129.79 231.24 129.47 231.22 129.27 231.4L105.27 252.74C104.02 251.97 102.77 251.28 101.52 250.66L124.34 230.06C124.54 229.88 124.56 229.56 124.38 229.36C124.18 229.16 123.88 229.14 123.68 229.32L100.55 250.2C99.5501 249.74 98.5801 249.33 97.6001 248.98L96.7501 248.68L117.51 229.52C117.564 229.485 117.611 229.441 117.65 229.39L123.21 224.26C129.57 218.6 142.21 222.39 151.39 232.71C155.87 237.73 158.87 243.53 159.82 249.03C160.78 254.49 159.62 258.97 156.58 261.69L156.56 261.63ZM152.14 232C151.94 231.76 151.71 231.53 151.49 231.3L152.14 232C156.74 237.15 159.82 243.12 160.81 248.8C159.81 243.12 156.74 237.15 152.14 232Z" fill="black"/>
</svg>
